<svg xmlns="http://www.w3.org/2000/svg" version="1.1" xmlns:xlink="http://www.w3.org/1999/xlink" xmlns:svgjs="http://svgjs.dev/svgjs" width="100%" height="100%" viewBox="0 0 1000 600"><rect width="1000" height="600" x="0" y="0" fill="#141817"/><g><circle r="166.66666666666666" cx="454.36088053385413" cy="476.58312807348614" fill="#f7f7f9" transform="matrix(0.4344890690711035,0,0,0.4344890690711036,0,92.92983974320238)"/><path d="M522.9289891125077 445.8886594358295L499.9264489369035 445.8886594358295Q493.8022057563923 433.024818496861 482.19837657226583 425.96289214995574Q470.59454738813935 418.8716632041006 455.2106829394868 418.8716632041006L455.2106829394868 418.8716632041006Q439.7975158918845 418.8716632041006 427.46112173401264 425.96289214995574Q415.1247275761408 433.024818496861 408.03349863028575 446.2109880242774Q400.9715722833805 459.3971575516939 400.9715722833805 476.68569093208436L400.9715722833805 476.68569093208436Q400.9715722833805 494.0035269114246 408.03349863028575 507.0724860430418Q415.1247275761408 520.141445174659 427.46112173401264 527.232674120514Q439.7975158918845 534.2946004674193 455.2106829394868 534.2946004674193L455.2106829394868 534.2946004674193Q476.71879056865055 534.2946004674193 490.63752506981234 521.4307595284508Q504.55625957097413 508.5376159905325 506.9004674869593 486.6192719760714L506.9004674869593 486.6192719760714L448.236664389431 486.6192719760714L448.236664389431 471.0009867358204L527.3536815539297 471.0009867358204L527.3536815539297 485.7694966065268Q525.6541308148405 503.90780535646184 515.954970562452 518.9986438156163Q506.2558103100634 534.0894822747707 490.43240687716366 542.8216567618153Q474.6090034442639 551.5831338478098 455.2106829394868 551.5831338478098L455.2106829394868 551.5831338478098Q434.72816627356656 551.5831338478098 417.84986927847353 542.0011839912204Q400.9715722833805 532.3899315356814 391.15520163519267 515.3065163479396Q381.3681335859547 498.22310116019787 381.3681335859547 476.68569093208436L381.3681335859547 476.68569093208436Q381.3681335859547 455.1775833029206 391.15520163519267 437.9769577193796Q400.9715722833805 420.77633213583863 417.84986927847353 411.19438227924934Q434.72816627356656 401.58312982371024 455.2106829394868 401.58312982371024L455.2106829394868 401.58312982371024Q478.6234595003885 401.58312982371024 496.6445578545243 413.18695900783666Q514.69495880761 424.79078819196314 522.9289891125077 445.8886594358295L522.9289891125077 445.8886594358295Z " fill="#3bc45a" transform="matrix(0.4344890690711035,0,0,0.4344890690711036,0,92.92983974320238)"/><path d="M845.1242950027982 445.84304395107955L822.2513361213493 445.84304395107955Q816.1615929287086 433.0516694938106 804.6231321426528 426.02952542956956Q793.084671356597 418.978243838091 777.7874695569018 418.978243838091L777.7874695569018 418.978243838091Q762.4611302299691 418.978243838091 750.1942312629753 426.02952542956956Q737.9273322959817 433.0516694938106 730.8760507045031 446.1635567506922Q723.853906640262 459.2754440075738 723.853906640262 476.46658507770746L723.853906640262 476.46658507770746Q723.853906640262 493.68686367507865 730.8760507045031 506.6822008230102Q737.9273322959817 519.6775379709418 750.1942312629753 526.7288195624203Q762.4611302299691 533.7509636266614 777.7874695569018 533.7509636266614L777.7874695569018 533.7509636266614Q799.1744145492376 533.7509636266614 813.014739987057 520.9595891693923Q826.8550654248766 508.13907718488593 829.1860676038776 486.344206811225L829.1860676038776 486.344206811225L770.8527380743733 486.344206811225L770.8527380743733 470.8139047936296L849.524061615663 470.8139047936296L849.524061615663 485.499218521337Q847.8340850358871 503.5353478813586 838.1895635202698 518.5411744086787Q828.5450420046524 533.5470009359988 812.8107772963945 542.229984052778Q797.0765125881364 550.942104696795 777.7874695569018 550.942104696795L777.7874695569018 550.942104696795Q757.420338017879 550.942104696795 740.6371223290705 541.4141332901277Q723.853906640262 531.8570243562228 714.0928350156946 514.8698459767518Q704.3609009183648 497.8826675972808 704.3609009183648 476.46658507770746L704.3609009183648 476.46658507770746Q704.3609009183648 455.0796400853717 714.0928350156946 437.97591159695054Q723.853906640262 420.87218310852944 740.6371223290705 411.34421170186215Q757.420338017879 401.7871027679573 777.7874695569018 401.7871027679573L777.7874695569018 401.7871027679573Q801.068353819676 401.7871027679573 818.9879330707475 413.3255635540131Q836.9366498490566 424.8640243400689 845.1242950027982 445.84304395107955L845.1242950027982 445.84304395107955ZM867.5601909756846 491.7929244046402Q867.5601909756846 474.1647204259438 874.6988851488757 460.8488704783996Q881.8375793220667 447.53302053085537 894.3084409797231 440.1903636670017Q906.8084401646169 432.84770680314796 922.105641964312 432.84770680314796L922.105641964312 432.84770680314796Q937.2280186005821 432.84770680314796 948.3294164780752 439.3453753771138Q959.4599518828059 445.84304395107955 964.908669476221 455.6915281573595L964.908669476221 455.6915281573595L964.908669476221 434.71250854634894L984.1977125074558 434.71250854634894L984.1977125074558 549.6891910255819L964.908669476221 549.6891910255819L964.908669476221 528.3022460332461Q959.2559891921433 538.3546929301887 948.0089036784626 544.9689116131044Q936.7909556920195 551.5831302960203 921.9016792736494 551.5831302960203L921.9016792736494 551.5831302960203Q906.5753399467167 551.5831302960203 894.2210283980105 544.0365107415041Q881.8375793220667 536.4607536597503 874.6988851488757 522.8243909125933Q867.5601909756846 509.18802816543644 867.5601909756846 491.7929244046402L867.5601909756846 491.7929244046402ZM964.908669476221 491.9968870953028Q964.908669476221 479.00154994737125 959.6639145734684 469.3278909045164Q954.4191596707158 459.683369388899 945.5030763360363 454.5551645950964Q936.5869930013567 449.3978222740563 925.8935205051889 449.3978222740563L925.8935205051889 449.3978222740563Q915.2000480090211 449.3978222740563 906.3713772560542 454.4386144861464Q897.5718440303247 459.4794066982364 892.327089127572 469.12392821385373Q887.0823342248194 478.7684497294711 887.0823342248194 491.7929244046402L887.0823342248194 491.7929244046402Q887.0823342248194 504.9922242432343 892.327089127572 514.7532958678019Q897.5718440303247 524.5143674923692 906.3713772560542 529.6425722861718Q915.2000480090211 534.7999146072118 925.8935205051889 534.7999146072118L925.8935205051889 534.7999146072118Q936.5869930013567 534.7999146072118 945.5030763360363 529.6425722861718Q954.4191596707158 524.5143674923692 959.6639145734684 514.7532958678019Q964.908669476221 504.9922242432343 964.908669476221 491.9968870953028L964.908669476221 491.9968870953028ZM1154.768796955867 432.6146065852479Q1168.201197012361 432.6146065852479 1178.6907068178662 438.17987428761313Q1189.1802166233715 443.7451419899785 1195.269959816012 454.8756773947091Q1201.3305654814153 465.97707527220217 1201.3305654814153 481.91530267112273L1201.3305654814153 481.91530267112273L1201.3305654814153 549.6891910255819L1182.4494478315057 549.6891910255819L1182.4494478315057 484.6542302314491Q1182.4494478315057 467.4630891613154 1173.9704274053888 458.3139056087358Q1165.4622694520347 449.1938595833937 1150.98091841499 449.1938595833937L1150.98091841499 449.1938595833937Q1136.0916419966197 449.1938595833937 1127.2921087708905 458.75096851729853Q1118.4634380179236 468.2789399239658 1118.4634380179236 486.344206811225L1118.4634380179236 486.344206811225L1118.4634380179236 549.6891910255819L1099.5823203680138 549.6891910255819L1099.5823203680138 484.6542302314491Q1099.5823203680138 467.4630891613154 1091.1032999418971 458.3139056087358Q1082.5951419885428 449.1938595833937 1068.1137909514982 449.1938595833937L1068.1137909514982 449.1938595833937Q1053.224514533128 449.1938595833937 1044.4249813073989 458.75096851729853Q1035.5963105544315 468.2789399239658 1035.5963105544315 486.344206811225L1035.5963105544315 486.344206811225L1035.5963105544315 549.6891910255819L1016.5112302138597 549.6891910255819L1016.5112302138597 434.71250854634894L1035.5963105544315 434.71250854634894L1035.5963105544315 451.29176154449476Q1041.278128365747 442.28826562810275 1050.8060997724142 437.4514361066753Q1060.3632087063193 432.6146065852479 1071.901669492375 432.6146065852479L1071.901669492375 432.6146065852479Q1086.3830205294198 432.6146065852479 1097.484418406913 439.14141268645113Q1108.6149538116435 445.63908126041696 1114.0636714050588 458.22649302702325L1114.0636714050588 458.22649302702325Q1118.900500926486 446.04700664174214 1130.0018988039792 439.3453753771138Q1141.13243420871 432.6146065852479 1154.768796955867 432.6146065852479L1154.768796955867 432.6146065852479ZM1337.4902302623213 487.80108317310066Q1337.4902302623213 493.24980076651593 1336.8783421903336 499.3395439591565L1336.8783421903336 499.3395439591565L1244.9785812832122 499.3395439591565Q1246.0275322637626 516.3267223386276 1256.633592178218 525.8838312725325Q1267.210514565436 535.4118026791996 1282.332891201706 535.4118026791996L1282.332891201706 535.4118026791996Q1294.6872027504123 535.4118026791996 1302.9913980131041 529.6425722861718Q1311.2664557485582 523.8733418931438 1314.6172713808724 514.2288203775265L1314.6172713808724 514.2288203775265L1335.1883656105579 514.2288203775265Q1330.5846363070305 530.8080733756724 1316.7151733419732 541.1810330722276Q1302.8748479041537 551.5831302960203 1282.332891201706 551.5831302960203L1282.332891201706 551.5831302960203Q1265.9576008942227 551.5831302960203 1253.049676328004 544.2404734321667Q1240.1417517617847 536.8978165683129 1232.7990948979311 523.3488664028687Q1225.4564380340776 509.82905376466175 1225.4564380340776 491.9968870953028L1225.4564380340776 491.9968870953028Q1225.4564380340776 474.1647204259438 1232.5951322072683 460.73232036944955Q1239.7338263804595 447.2999203129553 1252.6417509466787 440.07381355805165Q1265.5496755128975 432.84770680314796 1282.332891201706 432.84770680314796L1282.332891201706 432.84770680314796Q1298.6790439819517 432.84770680314796 1311.2664557485582 439.95726344910156Q1323.8538675151644 447.09595762229264 1330.6720488887431 459.59595680718644Q1337.4902302623213 472.06681846484275 1337.4902302623213 487.80108317310066L1337.4902302623213 487.80108317310066ZM1317.764124322524 483.8092419415612Q1317.764124322524 472.91180675473066 1312.956432328334 465.0446744006017Q1308.1196028069066 457.17754204647275 1299.8445450714526 453.0691507059832Q1291.5403498087608 448.9898968927311 1281.487902911818 448.9898968927311L1281.487902911818 448.9898968927311Q1267.0065518747733 448.9898968927311 1256.8375548688807 458.22649302702325Q1246.668557862988 467.4630891613154 1245.182543973875 483.8092419415612L1245.182543973875 483.8092419415612L1317.764124322524 483.8092419415612ZM1381.7501341361062 453.3896635055958Q1386.790926348196 443.54117929931584 1396.1440725914385 438.09246170590063Q1405.4680813074433 432.6146065852479 1418.9004813639376 432.6146065852479L1418.9004813639376 432.6146065852479L1418.9004813639376 452.3407125250453L1413.8596891518473 452.3407125250453Q1381.7501341361062 452.3407125250453 1381.7501341361062 487.16005757387535L1381.7501341361062 487.16005757387535L1381.7501341361062 549.6891910255819L1362.6650537955343 549.6891910255819L1362.6650537955343 434.71250854634894L1381.7501341361062 434.71250854634894L1381.7501341361062 453.3896635055958ZM1543.2885851408873 551.1460673874576Q1528.8363716310805 551.1460673874576 1517.3853234267372 546.0178625936551Q1505.9634127496315 540.8896577998523 1499.4657441756653 531.7404742472729Q1492.9389380744624 522.6204282219308 1492.7349753837998 510.6740420545497L1492.7349753837998 510.6740420545497L1513.1021069228223 510.6740420545497Q1514.151057903373 520.9595891693923 1521.581127348939 527.9817332336333Q1529.040334321743 535.0038772978744 1543.2885851408873 535.0038772978744L1543.2885851408873 535.0038772978744Q1556.9249478880442 535.0038772978744 1564.7920802421736 528.1856959242959Q1572.6592125963025 521.3675145507176 1572.6592125963025 510.6740420545497L1572.6592125963025 510.6740420545497Q1572.6592125963025 502.2824342101455 1568.055483292775 497.0376793073928Q1563.4517539892477 491.7929244046402 1556.517022506719 489.0539968443138Q1549.582291024191 486.344206811225 1537.8398675474723 483.19735386957336L1537.8398675474723 483.19735386957336Q1523.3585165104278 479.40947532869643 1514.675533393648 475.62159678781956Q1505.9634127496315 471.86285577418016 1499.7571194480406 463.79176072938856Q1493.5799636736874 455.6915281573595 1493.5799636736874 442.0551654102026L1493.5799636736874 442.0551654102026Q1493.5799636736874 430.1087792428216 1499.669706866328 420.87218310852944Q1505.7594500589685 411.6355869742373 1516.7734353547494 406.62393228938475Q1527.7874206505298 401.58314007729473 1542.0356714696745 401.58314007729473L1542.0356714696745 401.58314007729473Q1562.6067656993596 401.58314007729473 1575.7186529562414 411.86868719213743Q1588.8305402131227 422.12509677974253 1590.4913792656616 439.14141268645113L1590.4913792656616 439.14141268645113L1569.512359654651 439.14141268645113Q1568.4634086741003 430.74980484204696 1560.7128264289213 424.3395488497937Q1552.9622441837423 417.9292928575405 1540.1417321992362 417.9292928575405L1540.1417321992362 417.9292928575405Q1528.195346031855 417.9292928575405 1520.6487264773386 424.1355861591311Q1513.1021069228223 430.3127419334842 1513.1021069228223 441.44327733821484L1513.1021069228223 441.44327733821484Q1513.1021069228223 449.3978222740563 1517.5892861173998 454.4386144861464Q1522.1056028392145 459.4794066982364 1528.7198215221301 462.10178414961274Q1535.3340402050462 464.724161600989 1547.280426372427 468.07497723330323L1547.280426372427 468.07497723330323Q1561.761777409472 472.06681846484275 1570.5613106352016 475.9421095874322Q1579.3899813881685 479.8174007100217 1585.6836872714716 487.91763328205076Q1591.9773931547747 495.9887283268423 1591.9773931547747 509.82905376466175L1591.9773931547747 509.82905376466175Q1591.9773931547747 520.5225262608296 1586.2955753434594 529.9630850857845Q1580.6428950593813 539.4036439107392 1569.512359654651 545.2894244127172Q1558.4109617771578 551.1460673874576 1543.2885851408873 551.1460673874576L1543.2885851408873 551.1460673874576ZM1673.3585067291533 450.44677325460685L1643.3759912017508 450.44677325460685L1643.3759912017508 518.2206616090659Q1643.3759912017508 526.6122694534702 1646.930769524727 530.0796351947345Q1650.5146853749416 533.5470009359988 1659.3142186006708 533.5470009359988L1659.3142186006708 533.5470009359988L1673.3585067291533 533.5470009359988L1673.3585067291533 549.6891910255819L1656.1673656590197 549.6891910255819Q1640.2291382600993 549.6891910255819 1632.24545579702 542.3465341617282Q1624.2909108611784 535.0038772978744 1624.2909108611784 518.2206616090659L1624.2909108611784 518.2206616090659L1624.2909108611784 450.44677325460685L1609.372496915571 450.44677325460685L1609.372496915571 434.71250854634894L1624.2909108611784 434.71250854634894L1624.2909108611784 405.77894399949685L1643.3759912017508 405.77894399949685L1643.3759912017508 434.71250854634894L1673.3585067291533 434.71250854634894L1673.3585067291533 450.44677325460685ZM1746.5811126770277 551.5831302960203Q1730.4389225874447 551.5831302960203 1717.327035330563 544.2404734321667Q1704.2151480736811 536.8978165683129 1696.7559411008774 523.3488664028687Q1689.325871655311 509.82905376466175 1689.325871655311 491.9968870953028L1689.325871655311 491.9968870953028Q1689.325871655311 474.3686831166064 1696.95990379154 460.8488704783996Q1704.6230734550063 447.2999203129553 1717.851510820838 440.07381355805165Q1731.050810659432 432.84770680314796 1747.4261009669153 432.84770680314796L1747.4261009669153 432.84770680314796Q1763.8013912743986 432.84770680314796 1777.000691112993 440.07381355805165Q1790.2291284788244 447.2999203129553 1797.892298142291 460.73232036944955Q1805.5263302785197 474.1647204259438 1805.5263302785197 491.9968870953028L1805.5263302785197 491.9968870953028Q1805.5263302785197 509.82905376466175 1797.6591979243908 523.3488664028687Q1789.792065570262 536.8978165683129 1776.3888030410048 544.2404734321667Q1762.956402984511 551.5831302960203 1746.5811126770277 551.5831302960203L1746.5811126770277 551.5831302960203ZM1746.5811126770277 534.7999146072118Q1756.8666597918705 534.7999146072118 1765.8992932355 529.9630850857845Q1774.9027891518917 525.1553930915945 1780.4680568542572 515.4817340487396Q1786.0333245566226 505.8372125331223 1786.0333245566226 491.9968870953028L1786.0333245566226 491.9968870953028Q1786.0333245566226 478.15656165748334 1780.584606963207 468.51204014186595Q1775.1067518425543 458.8383810990111 1766.3072186168251 454.1181016865337Q1757.5076853910955 449.3978222740563 1747.2221382762527 449.3978222740563L1747.2221382762527 449.3978222740563Q1736.7326284707478 449.3978222740563 1728.0205078267309 454.1181016865337Q1719.308387182714 458.8383810990111 1714.063632279961 468.51204014186595Q1708.8188773772085 478.15656165748334 1708.8188773772085 491.9968870953028L1708.8188773772085 491.9968870953028Q1708.8188773772085 506.0411752237848 1713.9762196982488 515.7148342666399Q1719.1044244920513 525.3593557822571 1727.699995027118 530.0796351947345Q1736.295565562185 534.7999146072118 1746.5811126770277 534.7999146072118L1746.5811126770277 534.7999146072118ZM1849.8153716795423 453.3896635055958Q1854.827026364395 443.54117929931584 1864.180172607637 438.09246170590063Q1873.5041813236417 432.6146065852479 1886.936581380136 432.6146065852479L1886.936581380136 432.6146065852479L1886.936581380136 452.3407125250453L1881.8957891680461 452.3407125250453Q1849.8153716795423 452.3407125250453 1849.8153716795423 487.16005757387535L1849.8153716795423 487.16005757387535L1849.8153716795423 549.6891910255819L1830.7011538117326 549.6891910255819L1830.7011538117326 434.71250854634894L1849.8153716795423 434.71250854634894L1849.8153716795423 453.3896635055958ZM2013.85965002675 487.80108317310066Q2013.85965002675 493.24980076651593 2013.2186244275244 499.3395439591565L2013.2186244275244 499.3395439591565L1921.3480010476405 499.3395439591565Q1922.3969520281912 516.3267223386276 1932.9738744154092 525.8838312725325Q1943.5799343298645 535.4118026791996 1958.6731734388973 535.4118026791996L1958.6731734388973 535.4118026791996Q1971.0566225148405 535.4118026791996 1979.3608177775322 529.6425722861718Q1987.6358755129868 523.8733418931438 1990.986691145301 514.2288203775265L1990.986691145301 514.2288203775265L2011.557785374986 514.2288203775265Q2006.9249185442213 530.8080733756724 1993.0845931064018 541.1810330722276Q1979.2442676685823 551.5831302960203 1958.6731734388973 551.5831302960203L1958.6731734388973 551.5831302960203Q1942.3270206586512 551.5831302960203 1929.4190960924325 544.2404734321667Q1916.5111715262133 536.8978165683129 1909.1685146623595 523.3488664028687Q1901.8258577985057 509.82905376466175 1901.8258577985057 491.9968870953028L1901.8258577985057 491.9968870953028Q1901.8258577985057 474.1647204259438 1908.964551971697 460.73232036944955Q1916.103246144888 447.2999203129553 1929.0111707111073 440.07381355805165Q1941.8899577500888 432.84770680314796 1958.6731734388973 432.84770680314796L1958.6731734388973 432.84770680314796Q1975.04846374638 432.84770680314796 1987.6358755129868 439.95726344910156Q2000.223287279593 447.09595762229264 2007.0414686531713 459.59595680718644Q2013.85965002675 472.06681846484275 2013.85965002675 487.80108317310066L2013.85965002675 487.80108317310066ZM1994.1335440869525 483.8092419415612Q1994.1335440869525 472.91180675473066 1989.3258520927625 465.0446744006017Q1984.4890225713352 457.17754204647275 1976.2139648358811 453.0691507059832Q1967.9097695731894 448.9898968927311 1957.8573226762464 448.9898968927311L1957.8573226762464 448.9898968927311Q1943.375971639202 448.9898968927311 1933.206974633309 458.22649302702325Q1923.008840100179 467.4630891613154 1921.5519637383031 483.8092419415612L1921.5519637383031 483.8092419415612L1994.1335440869525 483.8092419415612Z " fill="#f7f7f9" transform="matrix(0.4344890690711035,0,0,0.4344890690711036,0,92.92983974320238)"/></g></svg>